<svg width="40" height="40" viewBox="0 0 40 40" fill="none" xmlns="http://www.w3.org/2000/svg">
<circle cx="20" cy="20" r="19.5" stroke="white"/>
<path d="M27.3605 26.7233L21.9917 18.9238L21.3848 18.0417L17.5444 12.4624L17.2262 12H12.5071L13.6581 13.6725L18.7643 21.0917L19.3713 21.9729L23.4741 27.934L23.7924 28.396H28.5114L27.3605 26.7235V26.7233ZM24.3532 27.3284L20.0907 21.1354L19.4838 20.2538L14.5376 13.0674H16.6652L20.6652 18.8791L21.2722 19.7607L26.4808 27.3283H24.3532V27.3284Z" fill="white"/>
<path d="M19.4838 20.2537L20.0907 21.1353L19.3712 21.9727L13.8501 28.3958H12.4886L18.7642 21.0916L19.4838 20.2537Z" fill="white"/>
<path d="M27.9431 12L21.9917 18.9238L21.2721 19.7607L20.6652 18.8791L21.3847 18.0417L25.4162 13.3493L26.5817 12H27.9431Z" fill="white"/>
</svg>
