<svg id="Calque_5" data-name="Calque 5" xmlns="http://www.w3.org/2000/svg" viewBox="0 0 1678.64 1566.32" width="35px" height="35px"><defs><style>.cls-1{fill:none;}</style></defs><path class="cls-1" d="M942.47,1470.38v2.38c104.86,0,215.51.08,320.36-.06a231.78,231.78,0,0,0,69.14-10.45c88.06-27.52,125.21-108.28,114.49-180.67-8.07-54.53-37.9-93.87-87.73-117.63-29-13.82-60.09-19.16-91.94-19.76-30-.58-60.09-.22-90.13-.23-75.82,0-158.46.16-234.28.16l0,326.26Z" transform="translate(-160.68 -216.84)"/><path class="cls-1" d="M1227.08,838.12c20.55,0,40.91-1.91,60.63-8.07,44.58-13.92,75.31-42.27,89.48-87.26,8.3-26.38,9.25-53.4,3.85-80.41-8.91-44.44-34.06-76.26-75.81-94.45-22.87-10-47-13.9-71.83-13.94-95-.14-195.93.2-290.93.21V837.86C1035.32,837.88,1134.22,838.16,1227.08,838.12Z" transform="translate(-160.68 -216.84)"/><path class="cls-1" d="M679.82,1012.29c0,252.85,70,457.84,262.3,458.08V1144.12h.26l0-589.92C749.87,554.23,679.82,759.31,679.82,1012.29Z" transform="translate(-160.68 -216.84)"/><path d="M942.38,1144.12c75.82,0,158.46-.17,234.28-.16,30,0,60.1-.35,90.13.23,31.85.6,62.92,5.94,91.94,19.76,49.83,23.76,79.66,63.1,87.73,117.63C1457.18,1354,1420,1434.73,1332,1462.25a231.78,231.78,0,0,1-69.14,10.45c-104.85.14-215.5.06-320.36.06v307.65h-.16v2.16l323,.59q56.22,0,112.13-5.68a865.19,865.19,0,0,0,114.68-19c47.16-11.25,92.75-26.88,135.9-49.2,38.73-20,74-44.8,104.67-76,49.47-50.33,80.32-110.63,95.71-179.21,8.54-38.09,11.12-76.67,10.85-115.62-.23-32.15-3.47-63.85-11-95.07-22.31-92.64-73.42-164.63-154.58-214.93-35-21.71-72.82-37.1-112.35-48.42-1.31-.38-2.55-1-4.09-1.62.82-.68,1.09-1,1.41-1.17,1.83-1.11,3.68-2.2,5.52-3.29,34.17-20.18,66.68-42.64,96-69.56,47.07-43.26,80.24-95.12,97.42-156.93,8.75-31.52,13.25-63.68,14.94-96.32,2.2-42.27.1-84.22-8.64-125.71-10.48-49.76-30.23-95.36-61.7-135.6-28-35.85-62.59-64-101.91-86.58-43.07-24.71-89.26-41.51-137.19-53.87-51.67-13.32-104.26-21-157.34-25.55-44.92-3.83-89.85-7.09-134.93-7.06-142.51.09-85.87,0-228.38,0V554.2c95,0,195.93-.35,290.93-.21,24.78,0,49,4,71.83,13.94,41.75,18.19,66.9,50,75.81,94.45,5.4,27,4.45,54-3.85,80.41-14.17,45-44.9,73.34-89.48,87.26-19.72,6.16-40.08,8.06-60.63,8.07-92.86,0-191.76-.24-284.61-.26" transform="translate(-160.68 -216.84)"/><path d="M942.47,554.2" transform="translate(-160.68 -216.84)"/><path d="M942.47,1472.76c-192.33-.24-262.65-207.62-262.65-460.47S749.9,554.23,942.47,554.2c0,0,0-337.36,0-337.36-431.77,0-781.79,350-781.79,781.78s349.94,783.87,781.63,783.95c.05,0,.11-2.16.16-2.16V1472.76h0" transform="translate(-160.68 -216.84)"/></svg>
