<svg width="40" height="40" viewBox="0 0 40 40" fill="none" xmlns="http://www.w3.org/2000/svg">
<circle cx="20" cy="20" r="19.5" fill="white" stroke="white"/>
<g clip-path="url(#clip0_261_297)">
<path d="M20 11.8023C22.6717 11.8023 22.9853 11.8142 24.0413 11.8618C25.0179 11.9055 25.5459 12.0683 25.8992 12.2072C26.3676 12.3898 26.7011 12.6042 27.0504 12.9536C27.3998 13.3029 27.6181 13.6364 27.7968 14.1048C27.9317 14.4581 28.0985 14.9861 28.1421 15.9627C28.1898 17.0187 28.2017 17.3323 28.2017 20.004C28.2017 22.6757 28.1898 22.9893 28.1421 24.0453C28.0985 25.0218 27.9357 25.5498 27.7968 25.9031C27.6141 26.3716 27.3998 26.705 27.0504 27.0544C26.7011 27.4037 26.3676 27.6221 25.8992 27.8007C25.5459 27.9357 25.0179 28.1024 24.0413 28.1461C22.9853 28.1937 22.6717 28.2056 20 28.2056C17.3283 28.2056 17.0147 28.1937 15.9587 28.1461C14.9821 28.1024 14.4542 27.9397 14.1008 27.8007C13.6324 27.6181 13.2989 27.4037 12.9496 27.0544C12.6002 26.705 12.3819 26.3716 12.2033 25.9031C12.0683 25.5498 11.9015 25.0218 11.8579 24.0453C11.8102 22.9893 11.7983 22.6757 11.7983 20.004C11.7983 17.3323 11.8102 17.0187 11.8579 15.9627C11.9015 14.9861 12.0643 14.4581 12.2033 14.1048C12.3859 13.6364 12.6002 13.3029 12.9496 12.9536C13.2989 12.6042 13.6324 12.3859 14.1008 12.2072C14.4542 12.0723 14.9821 11.9055 15.9587 11.8618C17.0147 11.8102 17.3323 11.8023 20 11.8023ZM20 10C17.2846 10 16.9432 10.0119 15.8754 10.0595C14.8114 10.1072 14.085 10.2779 13.4498 10.524C12.7908 10.7781 12.235 11.1235 11.6792 11.6792C11.1235 12.235 10.7821 12.7948 10.524 13.4498C10.2779 14.085 10.1072 14.8114 10.0595 15.8793C10.0119 16.9432 10 17.2846 10 20C10 22.7154 10.0119 23.0568 10.0595 24.1247C10.1072 25.1886 10.2779 25.915 10.524 26.5542C10.7781 27.2132 11.1235 27.769 11.6792 28.3247C12.235 28.8805 12.7948 29.2219 13.4498 29.48C14.085 29.7261 14.8114 29.8968 15.8793 29.9444C16.9472 29.9921 17.2846 30.004 20.004 30.004C22.7233 30.004 23.0607 29.9921 24.1286 29.9444C25.1925 29.8968 25.919 29.7261 26.5582 29.48C27.2172 29.2259 27.7729 28.8805 28.3287 28.3247C28.8845 27.769 29.2259 27.2092 29.4839 26.5542C29.7301 25.919 29.9008 25.1925 29.9484 24.1247C29.996 23.0568 30.008 22.7193 30.008 20C30.008 17.2807 29.996 16.9432 29.9484 15.8753C29.9008 14.8114 29.7301 14.085 29.4839 13.4458C29.2299 12.7868 28.8845 12.231 28.3287 11.6753C27.7729 11.1195 27.2132 10.7781 26.5582 10.52C25.923 10.2739 25.1965 10.1032 24.1286 10.0556C23.0568 10.0119 22.7154 10 20 10Z" fill="#181717"/>
<path d="M20 14.867C17.1655 14.867 14.863 17.1655 14.863 20.004C14.863 22.8424 17.1616 25.1409 20 25.1409C22.8384 25.1409 25.137 22.8424 25.137 20.004C25.137 17.1655 22.8384 14.867 20 14.867ZM20 23.3346C18.158 23.3346 16.6653 21.842 16.6653 20C16.6653 18.158 18.158 16.6653 20 16.6653C21.842 16.6653 23.3347 18.158 23.3347 20C23.3347 21.842 21.842 23.3346 20 23.3346Z" fill="#181717"/>
<path d="M25.3394 15.8595C26.0015 15.8595 26.5383 15.3227 26.5383 14.6606C26.5383 13.9984 26.0015 13.4617 25.3394 13.4617C24.6773 13.4617 24.1405 13.9984 24.1405 14.6606C24.1405 15.3227 24.6773 15.8595 25.3394 15.8595Z" fill="#181717"/>
</g>
<defs>
<clipPath id="clip0_261_297">
<rect width="20" height="20" fill="white" transform="translate(10 10)"/>
</clipPath>
</defs>
</svg>
