<svg width="58" height="58" viewBox="0 0 58 58" fill="none" xmlns="http://www.w3.org/2000/svg">
<circle cx="28.8463" cy="28.8463" r="28.1251" stroke="white" stroke-width="1.44231"/>
<g clip-path="url(#clip0_172_365)">
<path d="M28.8462 17.0226C32.6997 17.0226 33.152 17.0398 34.675 17.1085C36.0836 17.1714 36.8451 17.4062 37.3547 17.6066C38.0303 17.87 38.5113 18.1792 39.0151 18.683C39.519 19.1869 39.8339 19.6679 40.0916 20.3435C40.2863 20.8531 40.5267 21.6146 40.5897 23.0231C40.6584 24.5462 40.6756 24.9985 40.6756 28.8519C40.6756 32.7054 40.6584 33.1577 40.5897 34.6807C40.5267 36.0893 40.292 36.8508 40.0916 37.3604C39.8282 38.036 39.519 38.517 39.0151 39.0209C38.5113 39.5247 38.0303 39.8396 37.3547 40.0973C36.8451 40.292 36.0836 40.5324 34.675 40.5954C33.152 40.6641 32.6997 40.6813 28.8462 40.6813C24.9928 40.6813 24.5405 40.6641 23.0174 40.5954C21.6089 40.5324 20.8474 40.2977 20.3378 40.0973C19.6621 39.8339 19.1812 39.5247 18.6773 39.0209C18.1735 38.517 17.8585 38.036 17.6009 37.3604C17.4062 36.8508 17.1657 36.0893 17.1027 34.6807C17.034 33.1577 17.0169 32.7054 17.0169 28.8519C17.0169 24.9985 17.034 24.5462 17.1027 23.0231C17.1657 21.6146 17.4005 20.8531 17.6009 20.3435C17.8643 19.6679 18.1735 19.1869 18.6773 18.683C19.1812 18.1792 19.6621 17.8643 20.3378 17.6066C20.8474 17.4119 21.6089 17.1714 23.0174 17.1085C24.5405 17.034 24.9985 17.0226 28.8462 17.0226ZM28.8462 14.4231C24.9298 14.4231 24.4374 14.4403 22.8972 14.509C21.3627 14.5777 20.3149 14.8239 19.3988 15.1789C18.4483 15.5453 17.6467 16.0435 16.8451 16.8451C16.0435 17.6467 15.5511 18.454 15.1789 19.3988C14.8239 20.3149 14.5777 21.3627 14.509 22.9029C14.4403 24.4374 14.4231 24.9298 14.4231 28.8462C14.4231 32.7626 14.4403 33.255 14.509 34.7953C14.5777 36.3298 14.8239 37.3776 15.1789 38.2994C15.5453 39.2499 16.0435 40.0515 16.8451 40.8531C17.6467 41.6547 18.454 42.1471 19.3988 42.5193C20.3149 42.8743 21.3627 43.1205 22.9029 43.1892C24.4431 43.2579 24.9298 43.2751 28.852 43.2751C32.7741 43.2751 33.2608 43.2579 34.801 43.1892C36.3355 43.1205 37.3833 42.8743 38.3052 42.5193C39.2556 42.1528 40.0572 41.6547 40.8588 40.8531C41.6604 40.0515 42.1528 39.2442 42.525 38.2994C42.88 37.3833 43.1262 36.3355 43.1949 34.7953C43.2636 33.255 43.2808 32.7683 43.2808 28.8462C43.2808 24.9241 43.2636 24.4374 43.1949 22.8972C43.1262 21.3627 42.88 20.3149 42.525 19.393C42.1586 18.4426 41.6604 17.641 40.8588 16.8394C40.0572 16.0378 39.2499 15.5453 38.3052 15.1732C37.389 14.8182 36.3412 14.572 34.801 14.5033C33.2551 14.4403 32.7626 14.4231 28.8462 14.4231Z" fill="white"/>
<path d="M28.8464 21.443C24.7582 21.443 21.4373 24.7582 21.4373 28.8521C21.4373 32.946 24.7525 36.2612 28.8464 36.2612C32.9403 36.2612 36.2555 32.946 36.2555 28.8521C36.2555 24.7582 32.9403 21.443 28.8464 21.443ZM28.8464 33.656C26.1896 33.656 24.0367 31.5031 24.0367 28.8464C24.0367 26.1896 26.1896 24.0367 28.8464 24.0367C31.5031 24.0367 33.656 26.1896 33.656 28.8464C33.656 31.5031 31.5031 33.656 28.8464 33.656Z" fill="white"/>
<path d="M36.5475 22.8742C37.5025 22.8742 38.2767 22.1001 38.2767 21.1451C38.2767 20.1901 37.5025 19.4159 36.5475 19.4159C35.5925 19.4159 34.8184 20.1901 34.8184 21.1451C34.8184 22.1001 35.5925 22.8742 36.5475 22.8742Z" fill="white"/>
</g>
<defs>
<clipPath id="clip0_172_365">
<rect width="28.8463" height="28.8463" fill="white" transform="translate(14.4231 14.4231)"/>
</clipPath>
</defs>
</svg>
