<svg width="200" height="187" viewBox="0 0 200 187" fill="none" xmlns="http://www.w3.org/2000/svg">
<g clip-path="url(#clip0_104_686)">
<path d="M93.1349 110.48C102.168 110.48 112.014 110.46 121.048 110.461C124.622 110.461 128.209 110.419 131.786 110.488C135.581 110.56 139.283 111.196 142.741 112.843C148.677 115.673 152.232 120.361 153.193 126.857C154.47 135.486 150.04 145.104 139.556 148.383C136.889 149.212 134.111 149.632 131.318 149.628C118.826 149.645 105.643 149.635 93.1492 149.635V186.29H93.1301V186.547L131.614 186.618C136.079 186.618 140.532 186.392 144.973 185.941C149.573 185.494 154.138 184.737 158.637 183.677C164.256 182.337 169.687 180.475 174.828 177.815C179.443 175.433 183.645 172.478 187.299 168.76C193.193 162.764 196.869 155.58 198.703 147.409C199.72 142.87 200.027 138.274 199.995 133.633C199.968 129.803 199.582 126.026 198.685 122.306C196.027 111.269 189.937 102.691 180.267 96.6985C176.097 94.1119 171.591 92.2783 166.881 90.9296C166.725 90.8843 166.578 90.8104 166.394 90.7366C166.492 90.6555 166.524 90.6174 166.562 90.5972C166.78 90.4649 167.001 90.335 167.22 90.2052C171.291 87.8008 175.164 85.1249 178.658 81.9175C184.266 76.7633 188.218 70.5845 190.265 63.2202C191.307 59.4648 191.843 55.6331 192.045 51.7443C192.307 46.7081 192.057 41.71 191.015 36.7667C189.767 30.8381 187.414 25.4051 183.664 20.6107C180.328 16.3394 176.207 12.9855 171.522 10.2952C166.391 7.35119 160.887 5.34957 155.177 3.87695C149.021 2.28995 142.755 1.37493 136.431 0.83282C131.079 0.376498 125.726 -0.0119117 120.355 -0.00833734C103.375 0.00238563 110.124 -0.00833734 93.1444 -0.00833734V40.1944C104.463 40.1944 116.488 40.1527 127.807 40.1694C130.759 40.1694 133.645 40.646 136.365 41.8303C141.339 43.9975 144.336 47.7875 145.397 53.0835C146.041 56.3003 145.928 59.5172 144.939 62.6638C143.25 68.0253 139.589 71.4019 134.278 73.0603C131.928 73.7943 129.502 74.0206 127.054 74.0218C115.99 74.0218 104.207 73.9932 93.1444 73.9909" fill="white"/>
<path d="M93.1456 149.635C70.2307 149.607 61.8525 124.899 61.8525 94.7731C61.8525 64.6476 70.2021 40.198 93.1456 40.1944V0C41.7028 0 0 41.7004 0 93.1444C0 144.588 41.6933 186.538 93.1266 186.547C93.1325 186.547 93.1397 186.29 93.1456 186.29V149.635Z" fill="white"/>
</g>
<defs>
<clipPath id="clip0_104_686">
<rect width="200" height="186.618" fill="white"/>
</clipPath>
</defs>
</svg>
