<svg width="40" height="40" viewBox="0 0 40 40" fill="none" xmlns="http://www.w3.org/2000/svg">
<circle cx="20" cy="20" r="19.5" fill="white" stroke="white"/>
<path d="M27.8659 27.2041L22.1016 18.8299L21.4499 17.8828L17.3265 11.8924L16.9849 11.396H11.9182L13.1539 13.1917L18.6364 21.1575L19.2881 22.1036L23.6932 28.504L24.0349 29H29.1017L27.8659 27.2043V27.2041ZM24.6371 27.8538L20.0606 21.2045L19.4089 20.2579L14.0983 12.5421H16.3826L20.6773 18.782L21.329 19.7285L26.9214 27.8536H24.6371V27.8538Z" fill="#AB3030"/>
<path d="M19.4089 20.2578L20.0605 21.2043L19.2879 22.1035L13.3601 28.9999H11.8983L18.6363 21.1574L19.4089 20.2578Z" fill="#AB3030"/>
<path d="M28.4916 11.396L22.1016 18.8299L21.329 19.7285L20.6773 18.782L21.4499 17.8828L25.7784 12.8447L27.0298 11.396H28.4916Z" fill="#AB3030"/>
</svg>
