<svg width="40" height="40" viewBox="0 0 40 40" fill="none" xmlns="http://www.w3.org/2000/svg">
<circle cx="20" cy="20" r="19.5" stroke="white"/>
<path d="M29.5881 15.1911C29.3574 14.3344 28.682 13.659 27.8253 13.4283C26.2602 13 20 13 20 13C20 13 13.7397 13 12.1746 13.4119C11.3344 13.6425 10.6425 14.3344 10.4119 15.1911C10 16.7562 10 20.0016 10 20.0016C10 20.0016 10 23.2635 10.4119 24.8121C10.6425 25.6688 11.318 26.3443 12.1746 26.5749C13.7562 27.0032 20 27.0032 20 27.0032C20 27.0032 26.2602 27.0032 27.8253 26.5914C28.682 26.3607 29.3574 25.6853 29.5881 24.8286C29.9999 23.2635 29.9999 20.0181 29.9999 20.0181C29.9999 20.0181 30.0164 16.7562 29.5881 15.1911Z" fill="white"/>
<path d="M18.0066 23L23.2125 20.0016L18.0066 17.0033V23Z" fill="#181717"/>
</svg>
